# xmcd CD database file
#
# Track frame offsets:
#	150
#	24090
#	45757
#	69647
#
# Disc length: 1216 seconds
#
# Revision: 3
# Processed by: cddbd v1.5.2PL0 Copyright (c) Steve Scherf et al.
# Submitted via: CDex 1.70beta3
#
DISCID=2204be04
DTITLE=茅原実里 - 一等星
DYEAR=2010
DGENRE=声優
TTITLE0=一等星
TTITLE1=SUMMER CARNIVAL～みのりんサンバ～
TTITLE2=一等星(Off Vocal)
TTITLE3=SUMMER CARNIVAL～みのりんサンバ～(Off Vocal)
EXTD=YEAR: 2010
EXTT0=
EXTT1=
EXTT2=
EXTT3=
PLAYORDER=
